<svg width="39" height="39" viewBox="0 0 39 39" fill="none" xmlns="http://www.w3.org/2000/svg">
<g clip-path="url(#clip0_52_431)">
<path d="M37.9766 30.0866L30.0829 24.8224C29.0812 24.1597 27.7384 24.3778 26.9978 25.3235L24.6984 28.2799C24.4029 28.6695 23.8658 28.7825 23.4383 28.5451L23.0009 28.3039C21.5509 27.5136 19.7468 26.5297 16.1119 22.8935C12.477 19.2573 11.4911 17.4518 10.7008 16.0045L10.461 15.5671C10.2202 15.1397 10.3311 14.6003 10.7209 14.3024L13.6753 12.0037C14.6206 11.2631 14.839 9.92067 14.1771 8.91862L8.91285 1.02488C8.23449 0.00448553 6.8735 -0.301832 5.82332 0.329463L2.52244 2.3123C1.48529 2.92204 0.724369 3.90954 0.39924 5.06787C-0.789398 9.39882 0.104802 16.8734 11.1155 27.8853C19.8743 36.6434 26.3947 38.9987 30.8765 38.9987C31.9079 39.0031 32.9353 38.8689 33.9311 38.5997C35.0896 38.2749 36.0773 37.5139 36.6866 36.4765L38.6715 33.1776C39.3037 32.1272 38.9975 30.7654 37.9766 30.0866ZM37.5516 32.5107L35.5713 35.8116C35.1338 36.5604 34.4234 37.111 33.5891 37.348C29.5909 38.4457 22.6058 37.5365 12.0351 26.9658C1.46435 16.3951 0.555217 9.41054 1.65292 5.41173C1.89024 4.5764 2.44149 3.86514 3.19121 3.42691L6.49209 1.44666C6.94775 1.17248 7.53846 1.30538 7.83282 1.74818L10.6924 6.04143L13.0925 9.64123C13.38 10.0759 13.2855 10.6584 12.8755 10.9801L9.92038 13.2787C9.02107 13.9664 8.76426 15.2106 9.31795 16.1981L9.5526 16.6245C10.3832 18.1478 11.4159 20.0429 15.186 23.8124C18.9561 27.5818 20.8506 28.6146 22.3732 29.4451L22.8002 29.6804C23.7876 30.234 25.0319 29.9773 25.7196 29.0779L28.0183 26.1228C28.34 25.713 28.9223 25.6187 29.3571 25.9058L37.2501 31.17C37.6932 31.4641 37.8261 32.0551 37.5516 32.5107Z" fill="#FF7D34"/>
<path d="M22.0988 6.50337C28.1978 6.51015 33.1404 11.4527 33.1472 17.5518C33.1472 17.9107 33.4381 18.2016 33.7971 18.2016C34.156 18.2016 34.447 17.9107 34.447 17.5518C34.4394 10.7352 28.9154 5.21108 22.0988 5.20361C21.7399 5.20361 21.4489 5.49455 21.4489 5.85349C21.4489 6.21244 21.7399 6.50337 22.0988 6.50337Z" fill="#FF7D34"/>
<path d="M22.0988 10.4028C26.0452 10.4074 29.2431 13.6054 29.2478 17.5517C29.2478 17.9107 29.5388 18.2016 29.8977 18.2016C30.2566 18.2016 30.5475 17.9107 30.5475 17.5517C30.5421 12.8878 26.7627 9.10836 22.0988 9.10303C21.7399 9.10303 21.4489 9.39396 21.4489 9.75291C21.4489 10.1119 21.7399 10.4028 22.0988 10.4028Z" fill="#FF7D34"/>
<path d="M22.0988 14.3022C23.8926 14.3043 25.3462 15.7579 25.3484 17.5517C25.3484 17.9107 25.6394 18.2016 25.9982 18.2016C26.3571 18.2016 26.6481 17.9107 26.6481 17.5517C26.6452 15.0404 24.6101 13.0053 22.0988 13.0024C21.7399 13.0024 21.4489 13.2934 21.4489 13.6523C21.4489 14.0113 21.7399 14.3022 22.0988 14.3022Z" fill="#FF7D34"/>
</g>
<defs>
<clipPath id="clip0_52_431">
<rect width="39" height="39" fill="white"/>
</clipPath>
</defs>
</svg>
